<svg xmlns="http://www.w3.org/2000/svg" viewBox="0 0 187.24 157.76"><defs><style>.cls-1{fill:#574e6d;}.cls-2{fill:#eecce1;}.cls-3{fill:#fff;stroke:#574e6d;stroke-miterlimit:10;stroke-width:2px;}</style></defs><title>Logo</title><g id="Warstwa_2" data-name="Warstwa 2"><g id="Warstwa_5" data-name="Warstwa 5"><path id="_ścieżka_" data-name="&lt;ścieżka&gt;" class="cls-1" d="M133.35,60.84,179.8,40.11l7.44-35S165.55-.55,164.68,0s-39.12,33.21-39.12,33.21Z"/><path id="_ścieżka_2" data-name="&lt;ścieżka&gt;" class="cls-1" d="M53.89,60.84,7.44,40.11,0,5.11S21.69-.55,22.56,0,61.67,33.25,61.67,33.25Z"/></g><g id="Warstwa_3_kopia" data-name="Warstwa 3 kopia"><path id="_Prostokąt_" data-name="&lt;Prostokąt&gt;" class="cls-2" d="M48.7,22.1h86.54a0,0,0,0,1,0,0v92.27A43.27,43.27,0,0,1,92,157.64h0A43.27,43.27,0,0,1,48.7,114.37V22.1A0,0,0,0,1,48.7,22.1Z"/><rect id="_Prostokąt_2" data-name="&lt;Prostokąt&gt;" class="cls-1" x="65.24" y="64.33" width="10.33" height="25.54" rx="5.16" ry="5.16"/><rect id="_Prostokąt_3" data-name="&lt;Prostokąt&gt;" class="cls-1" x="108.82" y="64.33" width="10.33" height="25.54" rx="5.16" ry="5.16"/><polygon id="_ścieżka_3" data-name="&lt;ścieżka&gt;" class="cls-1" points="78.32 126.98 105.61 126.98 91.97 141.22 78.32 126.98"/><line id="_ścieżka_4" data-name="&lt;ścieżka&gt;" class="cls-3" x1="91.97" y1="127.1" x2="91.97" y2="157.76"/><circle id="_ścieżka_5" data-name="&lt;ścieżka&gt;" class="cls-1" cx="58.03" cy="35.36" r="12.37"/><circle id="_ścieżka_6" data-name="&lt;ścieżka&gt;" class="cls-1" cx="120.59" cy="35.92" r="15.81"/><circle id="_ścieżka_7" data-name="&lt;ścieżka&gt;" class="cls-1" cx="88.41" cy="31.37" r="20.37"/><circle id="_ścieżka_8" data-name="&lt;ścieżka&gt;" class="cls-1" cx="58.96" cy="35.36" r="12.37"/><circle id="_ścieżka_9" data-name="&lt;ścieżka&gt;" class="cls-1" cx="65.24" cy="22.99" r="12.37"/><circle id="_ścieżka_10" data-name="&lt;ścieżka&gt;" class="cls-1" cx="51.27" cy="26.59" r="8.77"/><circle id="_ścieżka_11" data-name="&lt;ścieżka&gt;" class="cls-1" cx="129.36" cy="24.09" r="8.77"/><circle id="_ścieżka_12" data-name="&lt;ścieżka&gt;" class="cls-1" cx="121.52" cy="35.92" r="15.81"/><circle id="_ścieżka_13" data-name="&lt;ścieżka&gt;" class="cls-1" cx="108.82" cy="22.1" r="15.81"/><circle id="_ścieżka_14" data-name="&lt;ścieżka&gt;" class="cls-1" cx="89.35" cy="31.37" r="20.37"/></g></g></svg>