<?xml version="1.0" encoding="iso-8859-1"?>
<!-- Generator: Adobe Illustrator 19.0.0, SVG Export Plug-In . SVG Version: 6.00 Build 0)  -->
<svg xmlns="http://www.w3.org/2000/svg" xmlns:xlink="http://www.w3.org/1999/xlink" version="1.1" id="Capa_1" x="0px" y="0px" viewBox="0 0 512 512" style="enable-background:new 0 0 512 512;" xml:space="preserve" width="512px" height="512px">
<g>
	<g>
		<path d="M512,15c0-8.284-6.716-15-15-15s-15,6.716-15,15c0,64.514-52.486,117-117,117H190.001C85.207,132,0,217.273,0,322    c0,104.481,84.983,190,190,190c104.896,0,190-85.403,190-190c0-67.099-34.963-126.186-87.627-160H365    C446.056,162,512,96.056,512,15z M190,162c27.351,0,53.118,6.904,75.659,19.052c11.651,39.607,10.695,81.736-2.623,120.596    c-55.908-24.096-99.31-72.913-115.137-134.015C161.32,163.968,175.433,162,190,162z M30,322c0-25.874,6.181-50.329,17.132-71.978    c15.702,69.925,63.791,128.409,128.89,158.471c-29.61,17.607-63.025,27.049-98.098,27.574C48.365,407.02,30,366.617,30,322z     M190,482c-27.471,0-53.346-6.962-75.957-19.209c34.972-5.98,67.816-20.007,96.755-41.452    c32.794,9.223,66.799,11.028,100.133,5.317C281.572,460.536,238.245,482,190,482z M334.866,389.877    c-123.651,40.419-253.081-46.133-262.824-175.86c13.454-14.685,29.606-26.854,47.663-35.722    C147.338,279.11,240.698,350.41,347.881,347.972C345.465,362.71,341.029,376.776,334.866,389.877z M301.843,207.704    c28.783,28.171,47.012,67.084,48.105,110.186c-19.464,0.704-38.995-1.317-58.551-6.461    C302.855,278.026,306.375,242.526,301.843,207.704z" fill="#FFFFFF"/>
	</g>
</g>
<g>
</g>
<g>
</g>
<g>
</g>
<g>
</g>
<g>
</g>
<g>
</g>
<g>
</g>
<g>
</g>
<g>
</g>
<g>
</g>
<g>
</g>
<g>
</g>
<g>
</g>
<g>
</g>
<g>
</g>
</svg>
