<?xml version="1.0" encoding="iso-8859-1"?>
<!-- Generator: Adobe Illustrator 19.0.0, SVG Export Plug-In . SVG Version: 6.00 Build 0)  -->
<svg xmlns="http://www.w3.org/2000/svg" xmlns:xlink="http://www.w3.org/1999/xlink" version="1.1" id="Layer_1" x="0px" y="0px" viewBox="0 0 512.12 512.12" style="enable-background:new 0 0 512.12 512.12;" xml:space="preserve" width="512px" height="512px">
<g transform="translate(1 1)">
	<g>
		<path d="M508.517,131.182c-3.471-3.471-8.678-3.471-12.149,0c-29.959,28.34-54.63,31.737-80.356,9.509l8.329-6.906    c22.563-23.431,22.563-60.746,0-83.308c-22.563-22.563-59.878-22.563-83.308,0.868l-6.678,8.075l-8.943-8.943    c-23.43-22.563-60.746-22.563-83.308,0c-11.281,11.281-17.356,26.034-17.356,41.654c0,15.62,6.075,30.373,17.356,41.654    l17.141,16.456L136.769,298.336l-29.174-29.174c-23.43-22.563-60.746-22.563-83.308,0C13.005,280.443,6.93,295.196,6.93,310.816    c0,15.62,6.075,30.373,17.356,41.654l37.191,36.907L0.856,462.68c-2.603,3.471-2.603,7.81,0.868,11.281    c1.736,1.736,3.471,2.603,6.075,2.603c1.736,0,4.339-0.868,5.207-1.736l73.322-60.792l51.641,51.247    c1.736,1.736,3.471,2.603,6.075,2.603c1.736,0,4.339-0.868,6.075-1.736c3.471-3.471,3.471-8.678,0-12.149l-50.765-50.765    l109.568-90.845l26.24,27.06c11.281,11.281,26.034,16.488,39.919,16.488c16.488,0,32.109-6.942,44.258-16.488    c22.563-23.431,22.563-60.746,0-83.308l-19.73-18.941l103.031-85.424c15.184,13.803,31.025,21.057,46.869,21.057    c19.091,0,39.051-9.546,59.01-29.505C511.988,139.86,511.988,134.653,508.517,131.182z M254.252,121.636    c-7.81-7.81-12.149-18.224-12.149-29.505c0-11.281,4.339-21.695,12.149-29.505c16.488-16.488,42.522-16.488,59.01,0l10.093,10.093    l-53.133,64.248L254.252,121.636z M36.435,340.321c-7.81-7.81-12.149-18.224-12.149-29.505c0-11.281,4.339-21.695,12.149-29.505    c16.488-16.488,42.522-16.488,59.01,0l30.325,30.325l-53.423,64.598L36.435,340.321z M72.883,402.802l0.957-1.157l0.2,0.198    L72.883,402.802z M84.664,388.549L335.592,84.956l21.494,21.494l-8.244,8.244c-3.471,3.471-3.471,8.678,0,12.149    c1.736,1.736,3.471,2.603,6.075,2.603s4.339-0.868,6.075-2.603l28.637-28.637c3.471-3.471,3.471-8.678,0-12.149    s-8.678-3.471-12.149,0l-8.244,8.244l-22.648-22.648l7.461-9.027c7.81-7.81,18.224-12.149,29.505-12.149    s20.827,4.339,28.637,12.149c7.81,7.81,12.149,18.224,12.149,29.505c0,11.281-4.339,21.695-11.281,28.637L87.116,391.002    L84.664,388.549z M307.188,269.162c15.62,16.488,15.62,42.522,0,58.142c-15.62,13.017-42.522,16.488-59.01,0l-25.947-25.947    l64.049-53.104L307.188,269.162z" fill="#FFFFFF"/>
	</g>
</g>
<g>
</g>
<g>
</g>
<g>
</g>
<g>
</g>
<g>
</g>
<g>
</g>
<g>
</g>
<g>
</g>
<g>
</g>
<g>
</g>
<g>
</g>
<g>
</g>
<g>
</g>
<g>
</g>
<g>
</g>
</svg>
